<?xml version="1.0" encoding="UTF-8" standalone="no"?>
<!-- Generator: Adobe Illustrator 17.0.1, SVG Export Plug-In . SVG Version: 6.00 Build 0)  -->

<svg
   xmlns:dc="http://purl.org/dc/elements/1.1/"
   xmlns:cc="http://creativecommons.org/ns#"
   xmlns:rdf="http://www.w3.org/1999/02/22-rdf-syntax-ns#"
   xmlns:svg="http://www.w3.org/2000/svg"
   xmlns="http://www.w3.org/2000/svg"
   xmlns:sodipodi="http://sodipodi.sourceforge.net/DTD/sodipodi-0.dtd"
   xmlns:inkscape="http://www.inkscape.org/namespaces/inkscape"
   version="1.1"
   x="0px"
   y="0px"
   width="172"
   height="172"
   viewBox="0 0 172 172"
   enable-background="new 0 0 86 86"
   xml:space="preserve"
   id="svg21"
   sodipodi:docname="harbour-dwd.svg"
   inkscape:version="0.92.3 (2405546, 2018-03-11)"><metadata
   id="metadata27"><rdf:RDF><cc:Work
       rdf:about=""><dc:format>image/svg+xml</dc:format><dc:type
         rdf:resource="http://purl.org/dc/dcmitype/StillImage" /><dc:title /></cc:Work></rdf:RDF></metadata><defs
   id="defs25">
	<linearGradient
   y2="0.71689999"
   x2="85.283096"
   y1="85.283096"
   x1="0.71689999"
   gradientUnits="userSpaceOnUse"
   id="SVGID_1_"
   gradientTransform="rotate(-180,43,43)">
		<stop
   id="stop3"
   style="stop-color:#fe7402;stop-opacity:1"
   offset="0" />
		<stop
   id="stop5"
   style="stop-color:#ca161c;stop-opacity:1"
   offset="1" />
	</linearGradient>
	
	
	
	
	
<linearGradient
   gradientTransform="matrix(1.9836065,0,0,1.9836065,1.704913,2.7049141)"
   y2="14.823229"
   x2="21.267776"
   y1="84.284615"
   x1="43.054337"
   gradientUnits="userSpaceOnUse"
   id="SVGID_1_-3"><stop
     id="stop3-6"
     style="stop-color:#ca161c;stop-opacity:1"
     offset="0" /><stop
     id="stop5-7"
     style="stop-color:#eb6e00;stop-opacity:1"
     offset="1" /></linearGradient></defs><sodipodi:namedview
   pagecolor="#ffffff"
   bordercolor="#666666"
   borderopacity="1"
   objecttolerance="10"
   gridtolerance="10"
   guidetolerance="10"
   inkscape:pageopacity="0"
   inkscape:pageshadow="2"
   inkscape:window-width="1680"
   inkscape:window-height="1050"
   id="namedview23"
   showgrid="false"
   inkscape:zoom="1"
   inkscape:cx="-29.27466"
   inkscape:cy="41.26634"
   inkscape:window-x="1366"
   inkscape:window-y="0"
   inkscape:window-maximized="1"
   inkscape:current-layer="svg21" />
<circle
   style="fill:url(#SVGID_1_-3);stroke-width:1.98360658"
   id="circle8"
   cy="88"
   cx="87"
   r="84.699997"
   inkscape:export-xdpi="600"
   inkscape:export-ydpi="600" /><g
   id="Layer_2"
   display="none"
   style="display:none"
   transform="translate(0,86)">
</g>

<g
   id="g4639"
   transform="matrix(3.3789379,0,0,3.3789379,16.375007,-844.66139)"
   style="fill:#1c83ca;fill-opacity:1"
   inkscape:export-xdpi="600"
   inkscape:export-ydpi="600"><g
     id="g4633"
     style="fill:#1c83ca;fill-opacity:1"><g
       id="g4628"
       style="fill:#1c83ca;fill-opacity:1"
       transform="translate(-0.52916667,-1.5875)"><g
         id="g4624"
         style="fill:#1c83ca;fill-opacity:1"><path
           inkscape:connector-curvature="0"
           id="path492"
           style="fill:#1c83ca;fill-opacity:1;fill-rule:nonzero;stroke:none;stroke-width:0.74958885"
           d="m 27.578152,293.12449 c -1.551649,0 -3.058322,-0.34481 -4.43007,-0.98196 0.869523,-0.98946 1.98641,-3.44061 1.98641,-3.44061 0,-0.007 0.0075,-0.015 0.0075,-0.0225 0.08245,-0.29984 0.0075,-0.61466 -0.179901,-0.84704 -0.119934,-0.14242 -0.277348,-0.25486 -0.464745,-0.30733 -0.172406,-0.0525 -0.344811,-0.0525 -0.502225,-0.007 -0.05247,0.015 -0.104942,0.03 -0.149917,0.0525 -0.232373,0.0899 -0.427266,0.27734 -0.517217,0.52471 -0.0075,0.0225 -0.02998,0.0675 -0.02998,0.0675 -0.442258,1.33427 -1.244318,2.54111 -2.31623,3.48559 l -0.08995,0.0824 c -0.05247,0.045 -0.104943,0.0974 -0.157414,0.13493 -1.514169,1.24432 -3.33567,1.88896 -5.277105,1.88896 -3.777928,0 -6.9861683,-2.53361 -7.9606338,-5.98171 -0.1799013,-0.60717 -0.2773478,-1.23683 -0.3073314,-1.88897 -0.0075,-0.11244 -0.0075,-0.22487 -0.0075,-0.33731 0,-1.4692 0.3897862,-2.84094 1.079408,-4.03279 0.2773478,-0.50223 0.6146628,-0.96697 0.9969531,-1.39424 1.5141691,-1.70156 3.7329521,-2.78097 6.1991001,-2.78097 0.524712,0 1.05692,0.06 1.56664,0.15741 -0.337315,0.56219 -0.907002,1.85898 -0.921994,1.90396 0,0.007 -0.0075,0.015 -0.0075,0.0225 -0.07496,0.24736 -0.04498,0.50222 0.06746,0.7196 0.104943,0.20989 0.29234,0.3748 0.539704,0.45725 0.08995,0.03 0.172406,0.045 0.25486,0.045 0.367299,0.03 0.719606,-0.16491 0.899507,-0.48724 0.02249,-0.045 0.04498,-0.09 0.05997,-0.14242 0.322323,-0.86203 0.772076,-1.67908 1.34926,-2.42867 0.07496,-0.10494 0.142422,-0.18739 0.224877,-0.28484 0.652142,-0.79456 1.416722,-1.46919 2.256262,-2.03139 0.38229,-0.25486 0.787068,-0.48723 1.206838,-0.68962 1.409227,-0.68212 2.990859,-1.04942 4.624963,-1.04942 5.659396,0 10.254375,4.40008 10.254375,9.80462 0,5.39704 -4.594979,9.78963 -10.254375,9.78963 M 7.2260657,278.10723 c -0.240618,-0.65964 -0.3852887,-1.36425 -0.4362607,-2.09136 -0.014992,-0.16416 -0.014992,-0.32157 -0.014992,-0.49472 0,-0.16491 0,-0.32233 0.014992,-0.49473 0.1086904,-1.64085 0.7196053,-3.16327 1.7735271,-4.40684 0.2106345,-0.24811 0.4437566,-0.48048 0.6828755,-0.69786 1.2000914,-1.0944 2.6745334,-1.72331 4.2816514,-1.829 0.152167,-0.015 0.312579,-0.0225 0.472241,-0.0225 0.159662,0 0.320074,0.007 0.478987,0.0225 1.599623,0.10569 3.074814,0.7346 4.274905,1.829 0.239119,0.21738 0.471492,0.44975 0.682876,0.69786 0.472241,0.55395 0.850033,1.16112 1.133378,1.81326 0.161162,0.35456 0.281096,0.7256 0.380791,1.10414 -0.104193,0.0652 -0.210634,0.12743 -0.314078,0.19565 -0.884514,0.59217 -1.686574,1.29679 -2.391188,2.11384 -0.914498,-0.25486 -1.843988,-0.38229 -2.78847,-0.38229 -2.406181,0 -4.632459,0.83954 -6.3790013,2.23377 -0.5097204,0.40478 -0.9819614,0.86203 -1.409227,1.36425 -0.0045,0.006 -0.00825,0.0112 -0.013493,0.0172 -0.1656592,-0.31332 -0.3110794,-0.6364 -0.4295144,-0.97221 m 20.3520867,-6.45846 c -1.869475,0 -3.660992,0.40778 -5.274857,1.16186 -0.106441,-0.34106 -0.227125,-0.67613 -0.373295,-0.99995 -0.356804,-0.8163 -0.829045,-1.57414 -1.417472,-2.24877 -0.225627,-0.2691 -0.465495,-0.52471 -0.727101,-0.74958 -1.453453,-1.34926 -3.328924,-2.15132 -5.26961,-2.26376 -0.341812,-0.0225 -0.690371,-0.0225 -1.032184,0 -1.940685,0.11244 -3.8161569,0.9145 -5.2696096,2.25626 -0.2616065,0.23237 -0.501475,0.48798 -0.7271012,0.74959 -1.3005366,1.49918 -2.0778602,3.43312 -2.1940465,5.44201 -0.0075,0.17241 -0.014992,0.34481 -0.014992,0.52472 0,0.1799 0.0075,0.36055 0.014992,0.53295 0.071961,1.1911 0.3702969,2.36046 0.886014,3.42487 0.1521665,0.32533 0.3253215,0.64015 0.5172163,0.94449 -0.9002562,1.50292 -1.4182221,3.25396 -1.4182221,5.12269 0,0.73459 0.082455,1.4467 0.2323725,2.13633 0.052471,0.26985 0.1274301,0.5322 0.202389,0.79456 1.274301,4.13773 5.1571716,7.15857 9.7446556,7.15857 2.256262,0 4.437565,-0.74959 6.206595,-2.10634 1.799013,0.96697 3.837895,1.47669 5.914256,1.47669 6.716316,0 12.180818,-5.23963 12.180818,-11.6711 0,-6.44646 -5.464502,-11.68609 -12.180818,-11.68609" /></g></g></g></g><g
   id="g130"
   transform="matrix(2.3371359,0,0,-2.3371359,60.904614,43.784133)"
   style="fill:#fe7402;fill-opacity:1;stroke:none"
   inkscape:export-xdpi="600"
   inkscape:export-ydpi="600"><path
     d="m 0,0 0.366,-0.022 v 4.533 c 0,0.572 -0.465,1.036 -1.036,1.036 -0.571,0 -1.036,-0.464 -1.036,-1.036 V -0.022 L -1.34,0 C -0.897,0.027 -0.442,0.027 0,0"
     style="fill:#ffca00;fill-opacity:1;fill-rule:nonzero;stroke:none"
     id="path132"
     inkscape:connector-curvature="0" /></g><g
   id="g134"
   transform="matrix(2.3371359,0,0,-2.3371359,82.69092,54.101445)"
   style="fill:#fe7402;fill-opacity:1;stroke:none"
   inkscape:export-xdpi="600"
   inkscape:export-ydpi="600"><path
     d="m 0,0 0.244,-0.266 3.198,3.199 c 0.196,0.195 0.303,0.455 0.303,0.731 0,0.276 -0.107,0.536 -0.303,0.732 -0.39,0.39 -1.071,0.391 -1.463,0 L -1.219,1.198 -0.954,0.954 C -0.624,0.651 -0.303,0.33 0,0"
     style="fill:#ffca00;fill-opacity:1;fill-rule:nonzero;stroke:none"
     id="path136"
     inkscape:connector-curvature="0" /></g><g
   id="g138"
   transform="matrix(2.3371359,0,0,-2.3371359,27.898422,76.789155)"
   style="fill:#fe7402;fill-opacity:1;stroke:none"
   inkscape:export-xdpi="600"
   inkscape:export-ydpi="600"><path
     d="m 0,0 c -0.014,0.221 -0.02,0.449 -0.02,0.669 0,0.222 0.006,0.449 0.02,0.67 l 0.023,0.367 h -4.534 c -0.572,0 -1.036,-0.465 -1.036,-1.037 0,-0.571 0.464,-1.036 1.036,-1.036 h 4.534 z"
     style="fill:#ffca00;fill-opacity:1;fill-rule:nonzero;stroke:none"
     id="path140"
     inkscape:connector-curvature="0" /></g><g
   id="g142"
   transform="matrix(2.3371359,0,0,-2.3371359,35.416511,54.722094)"
   style="fill:#fe7402;fill-opacity:1;stroke:none"
   inkscape:export-xdpi="600"
   inkscape:export-ydpi="600"><path
     d="m 0,0 0.244,0.266 c 0.303,0.33 0.624,0.651 0.954,0.953 L 1.463,1.463 -1.735,4.661 C -2.126,5.053 -2.807,5.051 -3.198,4.662 -3.394,4.466 -3.501,4.206 -3.501,3.93 c 0,-0.276 0.107,-0.536 0.303,-0.731 z"
     style="fill:#ffca00;fill-opacity:1;fill-rule:nonzero;stroke:none"
     id="path144"
     inkscape:connector-curvature="0" /></g></svg>